<?xml version="1.0" encoding="UTF-8"?>
<svg xmlns="http://www.w3.org/2000/svg" xmlns:xlink="http://www.w3.org/1999/xlink" width="593px" height="500px" viewBox="0 0 592 500" version="1.1">
<g id="surface1">
<path style="fill:none;stroke-width:1;stroke-linecap:butt;stroke-linejoin:miter;stroke:rgb(100%,67.058824%,32.156863%);stroke-opacity:1;stroke-miterlimit:10;" d="M 475.889363 326.629064 C 475.889363 307.796923 467.078679 292.52887 456.210846 292.52887 C 445.339706 292.52887 436.529023 307.796923 436.529023 326.629064 C 436.529023 345.464512 445.339706 360.729259 456.210846 360.729259 C 467.078679 360.729259 475.889363 345.464512 475.889363 326.629064 Z M 475.889363 326.629064 " transform="matrix(1.181095,0,0,1.181491,0,0.0556433)"/>
<path style=" stroke:none;fill-rule:nonzero;fill:rgb(100%,67.058824%,32.156863%);fill-opacity:1;" d="M 518.890625 403.6875 C 515.582031 396.054688 518.074219 391.378906 518.074219 385.964844 C 518.074219 374.589844 521.890625 361.710938 528.707031 353.628906 C 530.535156 359.414062 531.507812 365.4375 531.597656 371.503906 C 531.5625 382.859375 525.667969 395.605469 518.890625 403.6875 Z M 518.890625 403.6875 "/>
<path style=" stroke:none;fill-rule:nonzero;fill:rgb(100%,100%,100%);fill-opacity:1;" d="M 526.308594 371.585938 C 526.308594 349.335938 515.902344 331.296875 503.0625 331.296875 C 490.226562 331.296875 479.820312 349.335938 479.820312 371.585938 C 479.820312 393.839844 490.226562 411.875 503.0625 411.875 C 515.902344 411.875 526.308594 393.839844 526.308594 371.585938 Z M 526.308594 371.585938 "/>
<path style=" stroke:none;fill-rule:nonzero;fill:rgb(100%,67.058824%,32.156863%);fill-opacity:1;" d="M 560.132812 387.230469 C 560.132812 391.730469 561.953125 395.324219 559.472656 401.40625 C 548.785156 392.890625 540.765625 378.582031 540.765625 363.847656 C 540.90625 358.65625 541.664062 353.5 543.019531 348.488281 C 553.695312 356.9375 560.132812 372.496094 560.132812 387.230469 Z M 560.132812 387.230469 "/>
<path style=" stroke:none;fill-rule:nonzero;fill:rgb(100%,100%,100%);fill-opacity:1;" d="M 591.410156 361.53125 C 591.410156 339.28125 581.003906 321.242188 568.164062 321.242188 C 555.328125 321.242188 544.921875 339.28125 544.921875 361.53125 C 544.921875 383.785156 555.328125 401.820312 568.164062 401.820312 C 581.003906 401.820312 591.410156 383.785156 591.410156 361.53125 Z M 591.410156 361.53125 "/>
<path style="fill:none;stroke-width:1;stroke-linecap:round;stroke-linejoin:round;stroke:rgb(100%,67.058824%,32.156863%);stroke-opacity:1;stroke-miterlimit:4;" d="M 456.210846 360.729259 L 456.210846 309.588886 M 456.210846 329.621179 L 464.181472 320.50928 M 456.210846 340.498593 L 467.700454 327.369654 M 456.210846 351.719851 L 468.070873 338.151187 M 456.210846 329.650935 L 446.550183 318.588375 M 456.210846 340.51843 L 444.35082 326.959685 M 456.210846 351.739688 L 444.35082 338.180943 " transform="matrix(1.181095,0,0,1.181491,0,0.0556433)"/>
<path style="fill:none;stroke-width:1;stroke-linecap:butt;stroke-linejoin:miter;stroke:rgb(0%,44.313725%,97.254902%);stroke-opacity:1;stroke-miterlimit:10;" d="M 500.730596 305.948754 C 500.730596 287.116613 491.919912 271.84856 481.048772 271.84856 C 470.180939 271.84856 461.370256 287.116613 461.370256 305.948754 C 461.370256 324.784202 470.180939 340.048949 481.048772 340.048949 C 491.919912 340.048949 500.730596 324.784202 500.730596 305.948754 Z M 500.730596 305.948754 " transform="matrix(1.181095,0,0,1.181491,0,0.0556433)"/>
<path style="fill:none;stroke-width:1;stroke-linecap:round;stroke-linejoin:round;stroke:rgb(0%,44.313725%,97.254902%);stroke-opacity:1;stroke-miterlimit:4;" d="M 481.048772 288.908576 L 481.048772 360.871426 M 481.048772 308.94087 L 490.689591 297.911371 M 481.048772 319.821589 L 492.908799 306.259538 M 481.048772 331.029623 L 492.908799 317.470877 M 481.048772 308.960707 L 471.381494 297.911371 M 481.048772 319.841426 L 469.188745 306.279375 M 481.048772 331.059378 L 469.188745 317.490715 " transform="matrix(1.181095,0,0,1.181491,0,0.0556433)"/>
<path style="fill:none;stroke-width:1;stroke-linecap:round;stroke-linejoin:round;stroke:rgb(100%,66.666667%,31.372549%);stroke-opacity:1;stroke-miterlimit:4;" d="M 445.610906 314.458925 C 445.610906 295.626784 436.800223 280.358731 425.929083 280.358731 C 415.06125 280.358731 406.250566 295.626784 406.250566 314.458925 C 406.250566 333.294373 415.06125 348.55912 425.929083 348.55912 C 436.800223 348.55912 445.610906 333.294373 445.610906 314.458925 Z M 445.610906 314.458925 " transform="matrix(1.181095,0,0,1.181491,0,0.0556433)"/>
<path style="fill:none;stroke-width:1;stroke-linecap:round;stroke-linejoin:round;stroke:rgb(100%,66.666667%,31.372549%);stroke-opacity:1;stroke-miterlimit:4;" d="M 425.929083 297.418746 L 425.929083 360.871426 M 425.929083 317.45104 L 435.579824 306.421542 M 425.929083 328.328453 L 437.789109 314.769708 M 425.929083 339.539793 L 437.789109 325.981048 M 425.929083 317.470877 L 416.268419 306.421542 M 425.929083 328.351597 L 414.069056 314.789546 M 425.929083 339.559631 L 414.069056 326.000885 " transform="matrix(1.181095,0,0,1.181491,0,0.0556433)"/>
<path style="fill:none;stroke-width:1;stroke-linecap:round;stroke-linejoin:round;stroke:rgb(32.941176%,32.941176%,32.941176%);stroke-opacity:1;stroke-miterlimit:4;" d="M 25.261262 360.871426 L 492.908799 360.871426 " transform="matrix(1.181095,0,0,1.181491,0,0.0556433)"/>
<path style=" stroke:none;fill-rule:nonzero;fill:rgb(75.686275%,76.078431%,96.862745%);fill-opacity:1;" d="M 119.023438 203.199219 L 178.367188 262.566406 C 184.363281 268.566406 184.363281 278.289062 178.367188 284.289062 L 118.152344 344.523438 C 112.15625 350.523438 102.4375 350.523438 96.441406 344.523438 L 37.09375 285.15625 C 31.097656 279.160156 31.097656 269.433594 37.09375 263.4375 L 97.308594 203.199219 C 103.304688 197.203125 113.027344 197.203125 119.023438 203.199219 Z M 119.023438 203.199219 "/>
<path style="fill:none;stroke-width:1;stroke-linecap:round;stroke-linejoin:round;stroke:rgb(0%,44.313725%,97.254902%);stroke-opacity:1;stroke-miterlimit:4;" d="M 47.050444 174.588367 L 135.367795 174.589924 C 142.548504 174.591058 148.369725 180.412279 148.368521 187.590651 L 148.370079 275.908002 C 148.371213 283.088711 142.550378 288.909546 135.369668 288.908412 L 47.049979 288.909193 C 39.871607 288.910397 34.050386 283.089176 34.049252 275.908467 L 34.050033 187.588777 C 34.051237 180.410405 39.872072 174.58957 47.050444 174.588367 Z M 47.050444 174.588367 " transform="matrix(0.83516,0.83544,-0.83516,0.83544,225.104407,4.048898)"/>
<path style=" stroke:none;fill-rule:nonzero;fill:rgb(32.54902%,84.705882%,41.568627%);fill-opacity:1;" d="M 37.015625 370.214844 C 37.648438 373.296875 38.125 376.410156 38.445312 379.539062 C 38.800781 382.644531 39.011719 385.765625 39.199219 388.882812 C 39.390625 392.003906 39.472656 395.132812 39.449219 398.277344 C 39.46875 401.433594 39.332031 404.585938 39.035156 407.730469 C 38.402344 404.648438 37.925781 401.535156 37.605469 398.40625 C 37.25 395.300781 37.039062 392.167969 36.851562 389.050781 C 36.660156 385.929688 36.589844 382.800781 36.601562 379.667969 C 36.613281 376.539062 36.695312 373.40625 37.015625 370.214844 Z M 37.015625 370.214844 "/>
<path style=" stroke:none;fill-rule:nonzero;fill:rgb(32.54902%,84.705882%,41.568627%);fill-opacity:1;" d="M 56.761719 387.9375 C 53.683594 388.570312 50.574219 389.050781 47.445312 389.367188 C 44.328125 389.722656 41.207031 389.9375 38.089844 390.136719 C 34.972656 390.335938 31.84375 390.398438 28.710938 390.371094 C 25.558594 390.402344 22.402344 390.261719 19.261719 389.960938 C 22.34375 389.324219 25.453125 388.851562 28.582031 388.542969 C 31.6875 388.1875 34.808594 387.960938 37.925781 387.773438 C 41.042969 387.585938 44.171875 387.515625 47.304688 387.539062 C 50.460938 387.511719 53.617188 387.644531 56.761719 387.9375 Z M 56.761719 387.9375 "/>
<path style=" stroke:none;fill-rule:nonzero;fill:rgb(3.137255%,43.921569%,92.54902%);fill-opacity:1;" d="M 122.492188 327.578125 C 123.0625 329.628906 123.480469 331.722656 123.742188 333.839844 C 124.039062 335.929688 124.238281 338.03125 124.34375 340.136719 C 124.453125 342.238281 124.488281 344.34375 124.429688 346.457031 C 124.394531 348.585938 124.199219 350.710938 123.847656 352.8125 C 123.28125 350.757812 122.859375 348.667969 122.585938 346.550781 C 122.300781 344.460938 122.101562 342.367188 121.996094 340.265625 C 121.890625 338.164062 121.855469 336.046875 121.914062 333.933594 C 121.949219 331.804688 122.140625 329.679688 122.492188 327.578125 Z M 122.492188 327.578125 "/>
<path style=" stroke:none;fill-rule:nonzero;fill:rgb(3.137255%,43.921569%,92.54902%);fill-opacity:1;" d="M 135.824219 339.523438 C 133.777344 340.09375 131.6875 340.511719 129.578125 340.773438 C 127.476562 341.058594 125.386719 341.269531 123.28125 341.375 C 121.179688 341.484375 119.078125 341.519531 116.964844 341.460938 C 114.835938 341.425781 112.710938 341.230469 110.609375 340.878906 C 112.65625 340.296875 114.746094 339.875 116.859375 339.617188 C 118.960938 339.332031 121.050781 339.121094 123.152344 339.011719 C 125.253906 338.90625 127.355469 338.882812 129.472656 338.941406 C 131.601562 338.976562 133.726562 339.171875 135.824219 339.523438 Z M 135.824219 339.523438 "/>
<path style=" stroke:none;fill-rule:nonzero;fill:rgb(32.54902%,84.705882%,41.568627%);fill-opacity:1;" d="M 206.988281 0.0546875 C 207.636719 3.152344 208.0625 6.257812 208.402344 9.378906 C 208.746094 12.496094 208.984375 15.605469 209.171875 18.734375 C 209.359375 21.867188 209.433594 24.984375 209.417969 28.117188 C 209.4375 31.273438 209.296875 34.425781 208.996094 37.566406 C 208.34375 34.472656 207.917969 31.363281 207.578125 28.246094 C 207.234375 25.125 207 22.019531 206.808594 18.886719 C 206.621094 15.757812 206.550781 12.636719 206.574219 9.507812 C 206.550781 6.351562 206.6875 3.199219 206.988281 0.0546875 Z M 206.988281 0.0546875 "/>
<path style=" stroke:none;fill-rule:nonzero;fill:rgb(32.54902%,84.705882%,41.568627%);fill-opacity:1;" d="M 226.769531 17.777344 C 223.675781 18.429688 220.570312 18.851562 217.453125 19.195312 C 214.332031 19.539062 211.226562 19.773438 208.097656 19.964844 C 204.96875 20.152344 201.847656 20.222656 198.71875 20.210938 C 195.5625 20.230469 192.410156 20.089844 189.269531 19.785156 C 192.363281 19.136719 195.472656 18.710938 198.589844 18.367188 C 201.707031 18.027344 204.8125 17.789062 207.945312 17.601562 C 211.074219 17.410156 214.191406 17.339844 217.320312 17.363281 C 220.476562 17.335938 223.628906 17.472656 226.769531 17.777344 Z M 231.707031 23.023438 C 232.277344 25.078125 232.695312 27.171875 232.960938 29.285156 C 233.242188 31.378906 233.457031 33.480469 233.5625 35.582031 C 233.667969 37.6875 233.703125 39.789062 233.644531 41.902344 C 233.609375 44.035156 233.414062 46.160156 233.066406 48.261719 C 232.492188 46.207031 232.066406 44.113281 231.800781 42 C 231.519531 39.90625 231.304688 37.804688 231.199219 35.703125 C 231.09375 33.597656 231.070312 31.496094 231.128906 29.378906 C 231.164062 27.25 231.355469 25.125 231.707031 23.023438 Z M 231.707031 23.023438 "/>
<path style=" stroke:none;fill-rule:nonzero;fill:rgb(32.54902%,84.705882%,41.568627%);fill-opacity:1;" d="M 244.996094 34.957031 C 242.941406 35.527344 240.847656 35.949219 238.734375 36.222656 C 236.644531 36.503906 234.554688 36.707031 232.453125 36.824219 C 230.347656 36.941406 228.234375 36.953125 226.132812 36.90625 C 224 36.867188 221.871094 36.667969 219.765625 36.316406 C 221.820312 35.746094 223.910156 35.324219 226.027344 35.0625 C 228.117188 34.78125 230.21875 34.566406 232.320312 34.460938 C 234.421875 34.355469 236.527344 34.332031 238.640625 34.390625 C 240.769531 34.425781 242.894531 34.617188 244.996094 34.957031 Z M 11.929688 353.570312 C 12.5 355.621094 12.921875 357.707031 13.191406 359.820312 C 13.476562 361.921875 13.675781 364.015625 13.796875 366.117188 C 13.914062 368.21875 13.925781 370.324219 13.878906 372.4375 C 13.832031 374.566406 13.636719 376.691406 13.289062 378.792969 C 12.714844 376.746094 12.296875 374.65625 12.035156 372.542969 C 11.75 370.441406 11.539062 368.351562 11.433594 366.246094 C 11.328125 364.144531 11.292969 362.027344 11.351562 359.925781 C 11.398438 357.796875 11.589844 355.671875 11.929688 353.570312 Z M 11.929688 353.570312 "/>
<path style=" stroke:none;fill-rule:nonzero;fill:rgb(32.54902%,84.705882%,41.568627%);fill-opacity:1;" d="M 25.226562 365.503906 C 23.175781 366.074219 21.082031 366.492188 18.96875 366.753906 C 16.878906 367.050781 14.777344 367.25 12.671875 367.359375 C 10.570312 367.464844 8.46875 367.5 6.355469 367.441406 C 4.226562 367.40625 2.101562 367.210938 0 366.859375 C 2.054688 366.292969 4.144531 365.871094 6.261719 365.597656 C 8.351562 365.3125 10.441406 365.113281 12.542969 365.007812 C 14.644531 364.898438 16.757812 364.863281 18.875 364.921875 C 21.003906 364.960938 23.128906 365.152344 25.226562 365.503906 Z M 529.78125 193.417969 C 530.414062 196.5 530.890625 199.609375 531.210938 202.742188 C 531.5625 205.847656 531.777344 208.96875 531.976562 212.097656 C 532.175781 215.230469 532.238281 218.347656 532.214844 221.480469 C 532.234375 224.632812 532.097656 227.789062 531.800781 230.929688 C 531.164062 227.851562 530.691406 224.738281 530.382812 221.609375 C 530.015625 218.5 529.804688 215.382812 529.613281 212.25 C 529.425781 209.121094 529.355469 206 529.367188 202.871094 C 529.378906 199.738281 529.460938 196.574219 529.78125 193.417969 Z M 529.78125 193.417969 "/>
<path style=" stroke:none;fill-rule:nonzero;fill:rgb(32.54902%,84.705882%,41.568627%);fill-opacity:1;" d="M 549.527344 211.152344 C 546.433594 211.800781 543.316406 212.226562 540.210938 212.570312 C 537.101562 212.914062 533.972656 213.148438 530.855469 213.339844 C 527.738281 213.527344 524.605469 213.597656 521.476562 213.585938 C 518.320312 213.605469 515.167969 213.464844 512.027344 213.160156 C 515.121094 212.511719 518.230469 212.085938 521.347656 211.742188 C 524.464844 211.402344 527.570312 211.164062 530.6875 210.976562 C 533.808594 210.785156 536.9375 210.714844 540.078125 210.738281 C 543.234375 210.710938 546.386719 210.847656 549.527344 211.152344 Z M 516.765625 171.761719 C 517.335938 173.8125 517.757812 175.902344 518.027344 178.011719 C 518.3125 180.101562 518.511719 182.207031 518.628906 184.308594 C 518.75 186.414062 518.761719 188.515625 518.703125 190.628906 C 518.667969 192.761719 518.472656 194.886719 518.121094 196.988281 C 517.550781 194.9375 517.132812 192.847656 516.871094 190.738281 C 516.585938 188.632812 516.375 186.542969 516.269531 184.4375 C 516.160156 182.335938 516.125 180.222656 516.183594 178.117188 C 516.230469 175.988281 516.425781 173.863281 516.765625 171.761719 Z M 516.765625 171.761719 "/>
<path style=" stroke:none;fill-rule:nonzero;fill:rgb(32.54902%,84.705882%,41.568627%);fill-opacity:1;" d="M 530.0625 183.695312 C 528.011719 184.265625 525.917969 184.683594 523.804688 184.945312 C 521.714844 185.230469 519.609375 185.441406 517.507812 185.550781 C 515.40625 185.65625 513.304688 185.691406 511.191406 185.632812 C 509.058594 185.597656 506.9375 185.402344 504.835938 185.054688 C 506.886719 184.476562 508.980469 184.054688 511.09375 183.789062 C 513.1875 183.503906 515.277344 183.304688 517.378906 183.199219 C 519.480469 183.09375 521.59375 183.058594 523.710938 183.117188 C 525.839844 183.152344 527.960938 183.34375 530.0625 183.695312 Z M 530.0625 183.695312 "/>
<path style=" stroke:none;fill-rule:nonzero;fill:rgb(84.705882%,49.019608%,11.372549%);fill-opacity:1;" d="M 290.183594 240.097656 L 123.164062 303.203125 L 261.648438 372.082031 L 442.496094 303.203125 Z M 290.183594 240.097656 "/>
<path style=" stroke:none;fill-rule:nonzero;fill:rgb(95.686275%,59.215686%,20.392157%);fill-opacity:1;" d="M 290.183594 240.097656 L 261.648438 372.082031 L 442.496094 303.203125 Z M 290.183594 240.097656 "/>
<path style=" stroke:none;fill-rule:nonzero;fill:rgb(100%,67.058824%,32.156863%);fill-opacity:1;" d="M 290.183594 240.242188 L 442.496094 303.203125 L 491.785156 304.738281 L 341.195312 237.039062 Z M 78.945312 282.347656 L 244.121094 223.59375 L 290.183594 240.097656 L 123.164062 303.203125 Z M 78.945312 282.347656 "/>
<path style=" stroke:none;fill-rule:nonzero;fill:rgb(8.627451%,49.803922%,98.823529%);fill-opacity:1;" d="M 330.554688 235.054688 C 330.011719 241.144531 328.5625 247.117188 326.253906 252.777344 C 323.417969 259.628906 320.585938 262.726562 319.261719 269.449219 C 318.300781 273.695312 318.300781 278.101562 319.261719 282.347656 C 320.21875 286.285156 322 289.589844 327.871094 296.871094 C 334.605469 305.234375 336.894531 306.640625 341.3125 311.933594 C 345.566406 317.050781 348.683594 322.757812 354.742188 333.980469 C 362.632812 348.570312 366.550781 355.875 367.109375 358.722656 C 371.089844 379.835938 343.910156 401.597656 339.695312 404.964844 C 306.683594 431.394531 258.753906 432.269531 223.570312 418.410156 C 208.9375 412.996094 195.707031 404.359375 184.863281 393.136719 C 163.144531 370.3125 158.773438 343.667969 156.910156 331.285156 C 155.46875 321.644531 150.390625 284.371094 170.890625 249.550781 C 191.714844 214.1875 218.3125 216.363281 227.335938 184.472656 C 234.210938 160.195312 224.820312 137.582031 230.019531 136.035156 C 235.523438 134.4375 241.179688 161.117188 266.632812 174.75 C 274.546875 178.992188 276.730469 177.871094 288 183.953125 C 303.128906 192.128906 306.199219 197.945312 316.628906 204.867188 C 340.722656 220.851562 362.691406 215.253906 363.871094 222.070312 C 364.570312 225.828125 358.851562 232.503906 327.316406 245.191406 Z M 330.554688 235.054688 "/>
<path style=" stroke:none;fill-rule:nonzero;fill:rgb(100%,67.058824%,32.156863%);fill-opacity:1;" d="M 261.648438 372.082031 L 258.433594 499.945312 L 123.164062 425.816406 L 123.164062 303.203125 Z M 261.648438 372.082031 "/>
<path style=" stroke:none;fill-rule:nonzero;fill:rgb(100%,72.156863%,43.137255%);fill-opacity:1;" d="M 261.648438 372.082031 L 258.433594 499.945312 L 435.128906 440.515625 L 442.496094 303.203125 Z M 261.648438 372.082031 "/>
<path style=" stroke:none;fill-rule:nonzero;fill:rgb(8.627451%,49.803922%,98.823529%);fill-opacity:1;" d="M 343.992188 338.304688 C 343.023438 329.5625 350.84375 326.714844 360.128906 310.882812 C 366.707031 299.644531 369.917969 288.871094 374.101562 274.847656 C 379.132812 257.976562 378.398438 253.710938 383.773438 248.5 C 390.5625 241.90625 402.671875 238.078125 411.730469 242.59375 C 423.164062 248.285156 424.167969 264.625 424.640625 272.128906 C 426.410156 301.0625 406.769531 322.625 399.363281 330.753906 C 390.660156 340.300781 373.378906 359.230469 358.023438 354.382812 C 351.105469 352.292969 344.796875 345.523438 343.992188 338.304688 Z M 343.992188 338.304688 "/>
<path style="fill-rule:nonzero;fill:rgb(100%,100%,100%);fill-opacity:1;stroke-width:1;stroke-linecap:round;stroke-linejoin:round;stroke:rgb(38.823529%,38.823529%,48.627451%);stroke-opacity:1;stroke-miterlimit:4;" d="M 209.908583 159.130126 L 231.640942 167.620459 C 231.640942 167.620459 228.181491 187.140291 216.258626 183.56959 C 204.339067 179.998889 209.908583 159.130126 209.908583 159.130126 Z M 209.908583 159.130126 " transform="matrix(1.181095,0,0,1.181491,0,0.0556433)"/>
<path style=" stroke:none;fill-rule:nonzero;fill:rgb(34.901961%,35.686275%,83.137255%);fill-opacity:1;" d="M 260.75 193.074219 C 260.75 193.074219 250.121094 210.796875 255.421875 216.941406 C 255.421875 216.941406 264.058594 210.277344 260.75 193.074219 Z M 260.75 193.074219 "/>
<path style="fill-rule:nonzero;fill:rgb(100%,100%,100%);fill-opacity:1;stroke-width:1;stroke-linecap:round;stroke-linejoin:round;stroke:rgb(38.823529%,38.823529%,48.627451%);stroke-opacity:1;stroke-miterlimit:4;" d="M 239.538807 170.9994 L 255.53959 185.318573 C 255.53959 185.318573 246.26919 201.059413 237.131082 194.139526 C 227.989667 187.21964 239.538807 170.9994 239.538807 170.9994 Z M 239.538807 170.9994 " transform="matrix(1.181095,0,0,1.181491,0,0.0556433)"/>
<path style=" stroke:none;fill-rule:nonzero;fill:rgb(34.901961%,35.686275%,83.137255%);fill-opacity:1;" d="M 292.378906 210.527344 C 292.378906 210.527344 277.570312 222.339844 280.097656 229.429688 C 280.097656 229.40625 289.699219 226.441406 292.378906 210.527344 Z M 292.378906 210.527344 "/>
<path style=" stroke:none;fill-rule:nonzero;fill:rgb(0.784314%,1.960784%,75.686275%);fill-opacity:1;" d="M 243.765625 216.730469 C 242.757812 215.472656 241.660156 214.285156 240.484375 213.183594 C 239.328125 212.058594 238.105469 211.003906 236.820312 210.03125 C 234.277344 208.0625 231.5 206.414062 228.554688 205.128906 C 225.621094 203.816406 222.539062 202.875 219.375 202.328125 C 216.183594 201.773438 212.945312 201.507812 209.703125 201.535156 C 210.492188 201.441406 211.304688 201.359375 212.148438 201.289062 C 212.960938 201.183594 213.777344 201.128906 214.59375 201.121094 C 216.238281 201.117188 217.886719 201.21875 219.519531 201.429688 C 222.78125 201.820312 225.96875 202.707031 228.96875 204.050781 C 232 205.378906 234.8125 207.15625 237.316406 209.320312 C 239.867188 211.410156 242.046875 213.914062 243.765625 216.730469 Z M 235.875 220.308594 C 233.144531 218.738281 230.234375 217.5 227.207031 216.621094 C 224.207031 215.722656 221.125 215.136719 218.007812 214.875 C 217.226562 214.757812 216.4375 214.792969 215.644531 214.734375 C 214.855469 214.691406 214.070312 214.691406 213.28125 214.734375 L 210.917969 214.734375 L 208.558594 214.957031 C 205.417969 215.320312 202.308594 215.902344 199.25 216.695312 C 200.738281 216.125 202.226562 215.511719 203.75 215.085938 C 205.304688 214.660156 206.882812 214.316406 208.476562 214.058594 C 211.640625 213.519531 214.863281 213.382812 218.066406 213.65625 C 221.292969 213.921875 224.46875 214.617188 227.515625 215.726562 C 229.015625 216.273438 230.484375 216.917969 231.90625 217.652344 C 233.308594 218.414062 234.636719 219.300781 235.875 220.308594 Z M 231.578125 225.71875 C 230.21875 225.71875 228.859375 225.660156 227.503906 225.71875 C 226.144531 225.78125 224.796875 225.71875 223.453125 225.839844 C 220.757812 225.976562 218.078125 226.277344 215.417969 226.738281 C 212.78125 227.183594 210.1875 227.882812 207.683594 228.828125 C 207.046875 229.050781 206.503906 229.371094 205.851562 229.644531 C 205.546875 229.785156 205.238281 229.914062 204.945312 230.078125 L 204.082031 230.601562 C 202.910156 231.292969 201.800781 232.082031 200.761719 232.964844 C 201.660156 231.925781 202.664062 230.988281 203.761719 230.164062 L 204.601562 229.546875 C 204.882812 229.359375 205.203125 229.207031 205.5 229.027344 C 206.101562 228.710938 206.679688 228.320312 207.316406 228.035156 C 209.835938 226.890625 212.492188 226.078125 215.21875 225.613281 C 220.640625 224.71875 226.175781 224.777344 231.578125 225.792969 Z M 284.890625 235.894531 C 288.164062 235.527344 291.472656 235.707031 294.683594 236.425781 C 297.925781 237.089844 301.046875 238.246094 303.941406 239.851562 C 306.855469 241.402344 309.515625 243.394531 311.820312 245.757812 C 312.980469 246.921875 314.058594 248.167969 315.046875 249.480469 C 315.546875 250.128906 316.003906 250.8125 316.414062 251.523438 C 316.851562 252.210938 317.289062 252.90625 317.703125 253.605469 C 315.75 251.015625 313.574219 248.609375 311.195312 246.410156 C 308.828125 244.242188 306.207031 242.367188 303.386719 240.832031 C 300.570312 239.292969 297.574219 238.101562 294.46875 237.289062 C 292.917969 236.855469 291.339844 236.523438 289.746094 236.292969 C 288.140625 236.046875 286.515625 235.914062 284.890625 235.894531 Z M 286.851562 244.339844 C 288.402344 244.726562 289.910156 245.25 291.363281 245.910156 C 292.8125 246.613281 294.214844 247.402344 295.570312 248.273438 C 298.277344 250.011719 300.746094 252.097656 302.914062 254.476562 C 305.078125 256.855469 306.9375 259.496094 308.441406 262.335938 C 309.191406 263.746094 309.867188 265.199219 310.460938 266.683594 C 311.03125 268.171875 311.476562 269.707031 311.9375 271.21875 C 310.699219 268.316406 309.265625 265.496094 307.652344 262.785156 L 306.398438 260.796875 L 305.019531 258.800781 C 304.570312 258.15625 304.089844 257.539062 303.578125 256.945312 C 303.058594 256.367188 302.609375 255.765625 302.042969 255.175781 C 299.933594 252.859375 297.597656 250.769531 295.0625 248.9375 C 292.515625 247.085938 289.761719 245.542969 286.851562 244.339844 Z M 285.199219 251.027344 C 289.289062 254.699219 292.707031 259.054688 295.296875 263.90625 C 296.589844 266.355469 297.558594 268.960938 298.179688 271.65625 C 298.34375 272.316406 298.390625 273.015625 298.496094 273.699219 C 298.496094 274.042969 298.617188 274.386719 298.640625 274.730469 L 298.640625 275.769531 C 298.660156 277.140625 298.527344 278.511719 298.25 279.855469 C 298.296875 278.503906 298.238281 277.148438 298.074219 275.804688 L 297.964844 274.8125 C 297.964844 274.480469 297.824219 274.148438 297.753906 273.820312 C 297.589844 273.167969 297.492188 272.507812 297.28125 271.871094 C 296.507812 269.304688 295.488281 266.816406 294.234375 264.449219 C 292.980469 262.066406 291.589844 259.757812 290.066406 257.539062 C 289.308594 256.355469 288.519531 255.328125 287.703125 254.242188 C 286.886719 253.15625 286.0625 252.089844 285.199219 251.027344 Z M 285.199219 251.027344 "/>
<path style=" stroke:none;fill-rule:nonzero;fill:rgb(99.607843%,58.431373%,14.901961%);fill-opacity:1;" d="M 261.421875 381.238281 L 308.207031 436.027344 L 438.492188 381.820312 L 442.023438 312.417969 L 261.648438 372.082031 Z M 213.351562 415.457031 L 261.421875 381.203125 L 261.648438 372.082031 L 123.164062 312.171875 L 123.164062 360.648438 Z M 213.351562 415.457031 "/>
<path style=" stroke:none;fill-rule:nonzero;fill:rgb(100%,90.196078%,80%);fill-opacity:1;" d="M 236.148438 169.398438 L 235.320312 150.824219 L 246.445312 167 C 246.445312 167 241.226562 163.289062 236.148438 169.398438 Z M 332.585938 225.71875 L 351.128906 224.539062 L 335.136719 235.929688 C 335.136719 235.929688 338.761719 230.660156 332.585938 225.71875 Z M 332.585938 225.71875 "/>
<path style=" stroke:none;fill-rule:nonzero;fill:rgb(100%,67.058824%,32.156863%);fill-opacity:1;" d="M 213.351562 406.488281 L 88.214844 330.449219 L 123.164062 303.203125 L 261.648438 372.082031 Z M 479.050781 355.910156 L 308.453125 426.894531 L 261.648438 372.082031 L 442.496094 303.203125 Z M 479.050781 355.910156 "/>
<path style=" stroke:none;fill-rule:nonzero;fill:rgb(99.607843%,58.431373%,14.901961%);fill-opacity:1;" d="M 123.164062 368.679688 C 125.023438 366.820312 127.039062 365.121094 129.1875 363.601562 C 131.296875 362.03125 133.542969 360.652344 135.898438 359.476562 C 134.039062 361.339844 132.023438 363.042969 129.875 364.558594 C 127.757812 366.117188 125.511719 367.496094 123.164062 368.679688 Z M 123.164062 378.757812 C 126.300781 375.976562 129.582031 373.363281 132.992188 370.925781 C 136.371094 368.449219 139.878906 366.152344 143.503906 364.050781 C 140.375 366.835938 137.097656 369.453125 133.6875 371.882812 C 130.304688 374.359375 126.792969 376.65625 123.164062 378.757812 Z M 123.152344 390.03125 C 125.433594 388.210938 127.78125 386.484375 130.15625 384.832031 C 132.53125 383.175781 134.882812 381.511719 137.335938 379.894531 C 139.792969 378.273438 142.191406 376.703125 144.671875 375.167969 L 148.394531 372.898438 C 149.65625 372.167969 150.898438 371.421875 152.171875 370.726562 C 150.992188 371.632812 149.808594 372.484375 148.710938 373.371094 L 145.167969 375.921875 C 142.804688 377.613281 140.445312 379.242188 137.988281 380.851562 C 135.53125 382.457031 133.132812 384.039062 130.652344 385.574219 C 128.171875 387.113281 125.703125 388.625 123.152344 390.03125 Z M 123.164062 405.554688 C 126.484375 402.980469 129.886719 400.5 133.296875 398.027344 C 136.710938 395.558594 140.148438 393.160156 143.597656 390.761719 C 147.046875 388.363281 150.542969 386.035156 154.0625 383.675781 L 159.351562 380.234375 C 161.136719 379.125 162.898438 377.980469 164.703125 376.890625 C 163.050781 378.203125 161.347656 379.445312 159.683594 380.707031 L 154.582031 384.429688 C 151.179688 386.898438 147.730469 389.296875 144.269531 391.695312 C 140.808594 394.09375 137.324219 396.421875 133.804688 398.785156 C 130.285156 401.148438 126.765625 403.382812 123.164062 405.554688 Z M 123.152344 420.785156 C 127.464844 417.523438 131.84375 414.378906 136.238281 411.238281 C 140.632812 408.09375 145.085938 405.058594 149.515625 401.964844 C 153.945312 398.867188 158.433594 395.890625 162.933594 392.914062 L 169.699219 388.472656 C 171.980469 387.015625 174.246094 385.539062 176.539062 384.121094 C 174.386719 385.765625 172.203125 387.335938 170.03125 388.941406 L 163.453125 393.667969 C 159.058594 396.8125 154.605469 399.859375 150.175781 402.957031 C 145.746094 406.050781 141.257812 409.027344 136.746094 412.007812 C 132.234375 414.984375 127.734375 417.925781 123.152344 420.785156 Z M 133.332031 431.074219 C 137.75 427.753906 142.25 424.53125 146.75 421.316406 C 151.25 418.101562 155.820312 414.996094 160.34375 411.863281 C 164.867188 408.734375 169.488281 405.648438 174.09375 402.601562 L 181.027344 398.039062 C 183.386719 396.550781 185.667969 395.039062 188.019531 393.585938 C 185.820312 395.265625 183.578125 396.871094 181.34375 398.511719 L 174.613281 403.34375 C 170.101562 406.546875 165.542969 409.679688 161.019531 412.796875 C 156.496094 415.917969 151.875 419.023438 147.257812 422.074219 C 142.640625 425.121094 138.035156 428.15625 133.332031 431.074219 Z M 146.941406 438.800781 C 151.355469 435.46875 155.84375 432.246094 160.355469 429.042969 C 164.867188 425.839844 169.417969 422.710938 173.953125 419.589844 C 178.488281 416.472656 183.082031 413.363281 187.699219 410.316406 L 194.621094 405.757812 C 196.984375 404.277344 199.273438 402.753906 201.625 401.300781 C 199.414062 402.980469 197.171875 404.597656 194.953125 406.242188 L 188.207031 411.074219 C 183.707031 414.273438 179.148438 417.394531 174.613281 420.523438 C 170.078125 423.65625 165.472656 426.75 160.863281 429.800781 C 156.257812 432.847656 151.628906 435.871094 146.941406 438.800781 Z M 160.628906 446.082031 C 165.046875 442.75 169.546875 439.523438 174.046875 436.320312 C 178.546875 433.121094 183.117188 429.988281 187.640625 426.871094 C 192.164062 423.75 196.78125 420.644531 201.386719 417.59375 L 208.320312 413.035156 C 210.683594 411.546875 212.964844 410.03125 215.3125 408.578125 C 213.117188 410.257812 210.871094 411.863281 208.652344 413.507812 L 201.96875 418.304688 C 197.457031 421.503906 192.894531 424.636719 188.371094 427.753906 C 183.847656 430.875 179.230469 433.980469 174.613281 437.03125 C 169.996094 440.078125 165.351562 443.113281 160.628906 446.082031 Z M 174.28125 453.003906 C 181.367188 447.839844 188.515625 442.796875 195.671875 437.761719 L 217.25 422.78125 L 238.984375 408.023438 L 249.90625 400.734375 L 260.890625 393.539062 L 250.261719 401.207031 L 239.539062 408.78125 L 217.960938 423.75 L 196.226562 438.507812 C 188.976562 443.386719 181.640625 448.242188 174.28125 453.003906 Z M 260.714844 408.851562 C 254.621094 413.328125 248.453125 417.699219 242.277344 422.058594 C 236.101562 426.421875 229.851562 430.695312 223.652344 435.058594 C 217.453125 439.417969 211.15625 443.585938 204.871094 447.792969 L 195.425781 454.066406 C 192.257812 456.132812 189.105469 458.226562 185.917969 460.257812 C 188.953125 458 192.046875 455.816406 195.105469 453.59375 L 204.351562 447.039062 C 210.542969 442.675781 216.777344 438.402344 222.980469 434.039062 C 229.179688 429.679688 235.476562 425.511719 241.757812 421.316406 C 248.042969 417.121094 254.347656 412.925781 260.714844 408.851562 Z M 260.3125 425.15625 C 255.328125 428.878906 250.273438 432.480469 245.21875 436.074219 C 240.164062 439.664062 235.027344 443.160156 229.933594 446.707031 C 224.84375 450.25 219.683594 453.75 214.511719 457.152344 L 206.691406 462.289062 C 204.070312 463.957031 201.484375 465.667969 198.847656 467.3125 C 201.328125 465.445312 203.855469 463.648438 206.359375 461.804688 L 213.945312 456.40625 C 219.011719 452.863281 224.125 449.316406 229.226562 445.773438 C 234.328125 442.230469 239.480469 438.777344 244.652344 435.351562 C 249.824219 431.925781 255.117188 428.476562 260.3125 425.15625 Z M 259.839844 442.738281 C 256.0625 445.632812 252.210938 448.40625 248.359375 451.171875 C 244.511719 453.9375 240.578125 456.632812 236.691406 459.359375 C 232.804688 462.089844 228.835938 464.699219 224.878906 467.3125 L 218.976562 471.199219 C 216.957031 472.460938 214.972656 473.761719 212.941406 474.992188 C 214.816406 473.539062 216.742188 472.144531 218.644531 470.726562 L 224.417969 466.554688 C 228.28125 463.789062 232.191406 461.109375 236.089844 458.378906 C 239.988281 455.648438 243.929688 453.039062 247.898438 450.429688 C 251.867188 447.816406 255.8125 445.230469 259.839844 442.738281 Z M 259.449219 459.65625 C 256.828125 461.746094 254.125 463.742188 251.417969 465.714844 C 248.714844 467.691406 245.976562 469.605469 243.222656 471.507812 C 240.472656 473.40625 237.683594 475.273438 234.859375 477.082031 L 230.632812 479.742188 C 229.191406 480.601562 227.785156 481.5 226.320312 482.339844 C 227.632812 481.289062 228.980469 480.296875 230.300781 479.269531 L 234.351562 476.289062 C 237.046875 474.304688 239.796875 472.390625 242.550781 470.488281 C 245.300781 468.585938 248.089844 466.722656 250.910156 464.914062 C 253.734375 463.105469 256.546875 461.296875 259.449219 459.65625 Z M 259.027344 476.316406 C 253.023438 481.394531 246.519531 485.855469 239.621094 489.628906 C 242.605469 487.070312 245.730469 484.683594 248.988281 482.480469 C 252.214844 480.238281 255.566406 478.179688 259.027344 476.316406 Z M 258.660156 490.078125 C 257.574219 491.332031 256.320312 492.433594 254.9375 493.351562 C 253.585938 494.308594 252.113281 495.078125 250.558594 495.644531 C 252.773438 493.164062 255.550781 491.257812 258.660156 490.078125 Z M 258.660156 490.078125 "/>
<path style=" stroke:none;fill-rule:nonzero;fill:rgb(0.784314%,1.960784%,75.686275%);fill-opacity:1;" d="M 251.324219 247.082031 C 251.511719 245.289062 252.046875 243.550781 252.90625 241.964844 C 253.710938 240.363281 254.78125 238.910156 256.074219 237.664062 C 255.5 239.335938 254.792969 240.953125 253.957031 242.507812 C 253.160156 244.078125 252.28125 245.605469 251.324219 247.082031 Z M 251.324219 247.082031 "/>
<path style=" stroke:none;fill-rule:nonzero;fill:rgb(100%,90.196078%,80%);fill-opacity:1;" d="M 253.4375 222.328125 L 270.105469 231.496094 C 270.105469 231.496094 249.660156 251.890625 253.4375 222.328125 Z M 253.4375 222.328125 "/>
<path style="fill:none;stroke-width:1;stroke-linecap:round;stroke-linejoin:round;stroke:rgb(0%,44.313725%,97.254902%);stroke-opacity:1;stroke-miterlimit:4;" d="M 380.999226 118.731611 L 292.078791 99.578768 C 288.6458 98.841484 286.191773 95.803082 286.188466 92.288587 L 286.188466 51.189157 C 286.188466 47.069626 289.528853 43.73036 293.649765 43.73036 L 382.520591 43.73036 C 384.501672 43.723747 386.403377 44.507318 387.808985 45.909148 C 389.211286 47.307673 389.998427 49.208741 389.998427 51.189157 L 389.998427 111.44143 C 390.001734 113.689649 388.986389 115.815539 387.240127 117.230595 C 385.490558 118.648956 383.19859 119.197786 380.999226 118.731611 Z M 380.999226 118.731611 " transform="matrix(1.181095,0,0,1.181491,0,0.0556433)"/>
<path style="fill:none;stroke-width:1;stroke-linecap:round;stroke-linejoin:round;stroke:rgb(0%,44.313725%,97.254902%);stroke-opacity:1;stroke-miterlimit:4;" d="M 294.509667 100.101148 L 297.998883 109.851146 L 313.708623 104.240517 Z M 294.509667 100.101148 " transform="matrix(1.181095,0,0,1.181491,0,0.0556433)"/>
<path style=" stroke:none;fill-rule:nonzero;fill:rgb(8.627451%,49.803922%,98.823529%);fill-opacity:1;" d="M 369.753906 123.484375 L 370.519531 123.214844 L 347.84375 118.324219 L 349.308594 122.398438 Z M 399.363281 109.542969 L 395.996094 109.542969 L 391.519531 65.972656 L 402.8125 63.550781 Z M 399.363281 109.542969 "/>
<path style=" stroke:none;fill-rule:nonzero;fill:rgb(8.627451%,49.803922%,98.823529%);fill-opacity:1;" d="M 400.144531 115.675781 C 400.144531 117.136719 398.957031 118.324219 397.496094 118.324219 C 396.035156 118.324219 394.851562 117.136719 394.851562 115.675781 C 394.851562 114.214844 396.035156 113.03125 397.496094 113.03125 C 398.957031 113.03125 400.144531 114.214844 400.144531 115.675781 Z M 400.144531 115.675781 "/>
<path style=" stroke:none;fill-rule:nonzero;fill:rgb(0.784314%,1.960784%,75.686275%);fill-opacity:1;" d="M 192.398438 309.785156 C 189.777344 308.367188 187.316406 306.675781 185.054688 304.738281 C 182.84375 302.734375 180.863281 300.492188 179.148438 298.050781 C 175.75 293.089844 173.34375 287.515625 172.0625 281.640625 C 170.789062 275.792969 170.265625 269.804688 170.503906 263.824219 C 170.703125 257.871094 171.542969 251.957031 173.007812 246.183594 C 172.511719 249.113281 172.097656 252.089844 171.824219 254.996094 C 171.554688 257.902344 171.386719 260.90625 171.386719 263.847656 C 171.292969 269.738281 171.894531 275.621094 173.183594 281.367188 C 174.402344 287.125 176.667969 292.605469 179.867188 297.542969 C 181.484375 299.996094 183.359375 302.265625 185.46875 304.3125 C 187.601562 306.351562 189.921875 308.183594 192.398438 309.785156 Z M 158.265625 281.828125 C 158.421875 285.917969 158.679688 289.992188 159.1875 294.023438 C 159.703125 298.050781 160.492188 302.035156 161.550781 305.957031 C 162.582031 309.871094 163.976562 313.679688 165.71875 317.332031 C 167.480469 320.996094 169.664062 324.4375 172.226562 327.589844 C 171.519531 326.855469 170.820312 326.113281 170.125 325.355469 C 169.429688 324.597656 168.835938 323.761719 168.1875 322.992188 C 167.539062 322.222656 167.007812 321.292969 166.464844 320.429688 C 165.894531 319.570312 165.375 318.683594 164.90625 317.769531 C 162.96875 314.128906 161.457031 310.273438 160.40625 306.285156 C 159.351562 302.308594 158.660156 298.242188 158.335938 294.140625 C 157.980469 290.046875 157.957031 285.929688 158.265625 281.828125 Z M 322.722656 289.980469 C 323.789062 292.542969 324.578125 295.207031 325.085938 297.933594 C 325.523438 300.667969 325.703125 303.4375 325.617188 306.203125 C 325.304688 311.769531 324.109375 317.25 322.074219 322.4375 C 320.03125 327.59375 317.4375 332.515625 314.335938 337.109375 C 311.25 341.710938 307.6875 345.972656 303.707031 349.824219 C 305.527344 347.761719 307.246094 345.617188 308.867188 343.398438 C 310.523438 341.210938 312.070312 338.941406 313.523438 336.613281 C 316.472656 332.007812 318.953125 327.113281 320.925781 322.011719 C 321.914062 319.46875 322.734375 316.863281 323.382812 314.214844 C 323.964844 311.554688 324.359375 308.859375 324.566406 306.144531 C 324.980469 300.6875 324.355469 295.203125 322.722656 289.980469 Z M 338.289062 342.890625 C 339.113281 340.105469 339.796875 337.28125 340.332031 334.429688 C 340.859375 331.59375 341.160156 328.722656 341.242188 325.839844 C 341.316406 322.960938 341.132812 320.082031 340.6875 317.238281 C 340.464844 315.808594 340.164062 314.394531 339.789062 312.996094 C 339.601562 312.300781 339.421875 311.601562 339.210938 310.90625 C 338.996094 310.207031 338.75 309.523438 338.539062 308.828125 C 338.878906 309.476562 339.199219 310.136719 339.503906 310.800781 C 339.8125 311.460938 340.0625 312.160156 340.34375 312.84375 C 340.820312 314.234375 341.214844 315.648438 341.523438 317.085938 C 342.167969 319.96875 342.453125 322.921875 342.375 325.875 C 342.296875 328.828125 341.902344 331.761719 341.195312 334.628906 C 340.507812 337.472656 339.535156 340.242188 338.289062 342.890625 Z M 338.289062 342.890625 "/>
</g>
</svg>
